<?xml version="1.0" encoding="UTF-8" standalone="no"?>
<!DOCTYPE svg PUBLIC "-//W3C//DTD SVG 1.1//EN"
 "http://www.w3.org/Graphics/SVG/1.1/DTD/svg11.dtd">
<!-- Generated by graphviz version 2.38.0 (20140413.2041)
 -->
<!-- Title: Boil Diagram Pages: 1 -->
<svg width="351pt" height="190pt"
 viewBox="0.00 0.00 351.25 189.92" xmlns="http://www.w3.org/2000/svg" xmlns:xlink="http://www.w3.org/1999/xlink">
<g id="graph0" class="graph" transform="scale(1 1) rotate(0) translate(4 185.924)">
<title>Boil Diagram</title>
<polygon fill="white" stroke="none" points="-4,4 -4,-185.924 347.251,-185.924 347.251,4 -4,4"/>
<!-- Title1 -->
<g id="node1" class="node"><title>Title1</title>
<ellipse fill="lightblue" stroke="lightblue" cx="75.6604" cy="-31.9241" rx="75.8212" ry="21.4286"/>
<text text-anchor="middle" x="75.6604" y="-34.9241" font-family="Times,serif" font-size="10.00">Title1</text>
<text text-anchor="middle" x="75.6604" y="-23.9241" font-family="Times,serif" font-size="10.00">“Boil Them Cabbage”</text>
</g>
<!-- Song1 -->
<g id="node4" class="node"><title>Song1</title>
<ellipse fill="lightpink" stroke="lightpink" cx="214.321" cy="-159.924" rx="27" ry="18"/>
<text text-anchor="middle" x="214.321" y="-157.424" font-family="Times,serif" font-size="10.00">Song1</text>
</g>
<!-- Title1&#45;&gt;Song1 -->
<g id="edge1" class="edge"><title>Title1&#45;&gt;Song1</title>
<path fill="none" stroke="black" d="M123.16,-48.4519C133.162,-53.3864 143.166,-59.5077 151.321,-66.9241 174.61,-88.1045 169.345,-102.081 187.321,-127.924 189.242,-130.686 191.334,-133.512 193.469,-136.287"/>
<polygon fill="black" stroke="black" points="190.911,-138.693 199.879,-144.335 196.387,-134.332 190.911,-138.693"/>
</g>
<!-- Song2 -->
<g id="node5" class="node"><title>Song2</title>
<ellipse fill="lightpink" stroke="lightpink" cx="214.321" cy="-29.9241" rx="27" ry="18"/>
<text text-anchor="middle" x="214.321" y="-27.4241" font-family="Times,serif" font-size="10.00">Song2</text>
</g>
<!-- Title1&#45;&gt;Song2 -->
<g id="edge2" class="edge"><title>Title1&#45;&gt;Song2</title>
<path fill="none" stroke="black" d="M151.388,-30.8305C160.314,-30.6998 169.092,-30.5714 177.108,-30.4541"/>
<polygon fill="black" stroke="black" points="177.206,-33.9531 187.153,-30.3071 177.103,-26.9539 177.206,-33.9531"/>
</g>
<!-- Title2 -->
<g id="node2" class="node"><title>Title2</title>
<ellipse fill="lightblue" stroke="lightblue" cx="75.6604" cy="-96.9241" rx="70.0071" ry="21.4286"/>
<text text-anchor="middle" x="75.6604" y="-99.9241" font-family="Times,serif" font-size="10.00">Title2</text>
<text text-anchor="middle" x="75.6604" y="-88.9241" font-family="Times,serif" font-size="10.00">“Boil &#39;Em Cabbage”</text>
</g>
<!-- Title2&#45;&gt;Song1 -->
<g id="edge3" class="edge"><title>Title2&#45;&gt;Song1</title>
<path fill="none" stroke="black" d="M116.684,-114.311C127.925,-119.276 140.132,-124.746 151.321,-129.924 161.683,-134.719 172.94,-140.111 182.984,-144.987"/>
<polygon fill="black" stroke="black" points="181.65,-148.231 192.173,-149.468 184.718,-141.939 181.65,-148.231"/>
</g>
<!-- Title2&#45;&gt;Song2 -->
<g id="edge4" class="edge"><title>Title2&#45;&gt;Song2</title>
<path fill="none" stroke="black" d="M115.16,-79.2175C126.821,-73.7629 139.633,-67.6773 151.321,-61.9241 161.971,-56.6816 173.553,-50.7634 183.793,-45.4551"/>
<polygon fill="black" stroke="black" points="185.501,-48.5118 192.754,-40.7886 182.268,-42.3032 185.501,-48.5118"/>
</g>
<!-- Title3 -->
<g id="node3" class="node"><title>Title3</title>
<ellipse fill="lightblue" stroke="lightblue" cx="75.6604" cy="-159.924" rx="69.0935" ry="21.4286"/>
<text text-anchor="middle" x="75.6604" y="-162.924" font-family="Times,serif" font-size="10.00">Title3</text>
<text text-anchor="middle" x="75.6604" y="-151.924" font-family="Times,serif" font-size="10.00">“Bile &#39;Em Cabbage”</text>
</g>
<!-- Title3&#45;&gt;Song1 -->
<g id="edge5" class="edge"><title>Title3&#45;&gt;Song1</title>
<path fill="none" stroke="black" d="M144.991,-159.924C156.066,-159.924 167.14,-159.924 177.052,-159.924"/>
<polygon fill="black" stroke="black" points="177.294,-163.424 187.294,-159.924 177.294,-156.424 177.294,-163.424"/>
</g>
<!-- Instance1 -->
<g id="node6" class="node"><title>Instance1</title>
<ellipse fill="palegreen" stroke="palegreen" cx="310.286" cy="-109.924" rx="32.9303" ry="18"/>
<text text-anchor="middle" x="310.286" y="-107.424" font-family="Times,serif" font-size="10.00">Instance1</text>
</g>
<!-- Song1&#45;&gt;Instance1 -->
<g id="edge6" class="edge"><title>Song1&#45;&gt;Instance1</title>
<path fill="none" stroke="black" d="M236.175,-148.827C248.212,-142.422 263.604,-134.232 277.157,-127.02"/>
<polygon fill="black" stroke="black" points="278.999,-130.005 286.183,-122.218 275.711,-123.825 278.999,-130.005"/>
</g>
<!-- Instance2 -->
<g id="node7" class="node"><title>Instance2</title>
<ellipse fill="palegreen" stroke="palegreen" cx="310.286" cy="-163.924" rx="32.9303" ry="18"/>
<text text-anchor="middle" x="310.286" y="-161.424" font-family="Times,serif" font-size="10.00">Instance2</text>
</g>
<!-- Song1&#45;&gt;Instance2 -->
<g id="edge7" class="edge"><title>Song1&#45;&gt;Instance2</title>
<path fill="none" stroke="black" d="M241.495,-161.038C249.458,-161.377 258.419,-161.759 267.155,-162.131"/>
<polygon fill="black" stroke="black" points="267.092,-165.631 277.232,-162.56 267.39,-158.637 267.092,-165.631"/>
</g>
<!-- Instance3 -->
<g id="node8" class="node"><title>Instance3</title>
<ellipse fill="palegreen" stroke="palegreen" cx="310.286" cy="-29.9241" rx="32.9303" ry="18"/>
<text text-anchor="middle" x="310.286" y="-27.4241" font-family="Times,serif" font-size="10.00">Instance3</text>
</g>
<!-- Song2&#45;&gt;Instance3 -->
<g id="edge8" class="edge"><title>Song2&#45;&gt;Instance3</title>
<path fill="none" stroke="black" d="M241.495,-29.9241C249.458,-29.9241 258.419,-29.9241 267.155,-29.9241"/>
<polygon fill="black" stroke="black" points="267.232,-33.4242 277.232,-29.9241 267.232,-26.4242 267.232,-33.4242"/>
</g>
<!-- Instance1&#45;&gt;Title1 -->
<g id="edge9" class="edge"><title>Instance1&#45;&gt;Title1</title>
<path fill="none" stroke="black" stroke-dasharray="1,5" d="M281.876,-100.733C245.852,-88.6547 181.647,-67.1264 134.619,-51.3577"/>
<polygon fill="black" stroke="black" points="135.455,-47.9465 124.861,-48.0857 133.229,-54.5833 135.455,-47.9465"/>
</g>
<!-- Instance2&#45;&gt;Title2 -->
<g id="edge10" class="edge"><title>Instance2&#45;&gt;Title2</title>
<path fill="none" stroke="black" stroke-dasharray="1,5" d="M285.88,-151.752C273.001,-145.439 256.578,-138.007 241.321,-132.924 211.148,-122.872 176.915,-114.866 147.509,-108.981"/>
<polygon fill="black" stroke="black" points="147.81,-105.474 137.324,-106.988 146.466,-112.343 147.81,-105.474"/>
</g>
<!-- Instance3&#45;&gt;Title1 -->
<g id="edge11" class="edge"><title>Instance3&#45;&gt;Title1</title>
<path fill="none" stroke="black" stroke-dasharray="1,5" d="M285.421,-17.8685C272.683,-12.1038 256.535,-5.83536 241.321,-2.9241 204.762,4.07176 163.513,-3.21762 131.446,-12.2362"/>
<polygon fill="black" stroke="black" points="130.407,-8.89336 121.804,-15.0767 132.385,-15.608 130.407,-8.89336"/>
</g>
</g>
</svg>
